<svg width="55" height="55" viewBox="0 0 55 55" fill="none" xmlns="http://www.w3.org/2000/svg">
<path d="M49.9709 23.0117H48.1249V22.9166H27.4999V32.0833H40.4513C38.5618 37.4194 33.4846 41.2499 27.4999 41.2499C19.9065 41.2499 13.7499 35.0934 13.7499 27.4999C13.7499 19.9065 19.9065 13.7499 27.4999 13.7499C31.005 13.7499 34.1939 15.0722 36.6219 17.2321L43.1039 10.7501C39.011 6.93565 33.5362 4.58325 27.4999 4.58325C14.8442 4.58325 4.58325 14.8442 4.58325 27.4999C4.58325 40.1556 14.8442 50.4166 27.4999 50.4166C40.1556 50.4166 50.4166 40.1556 50.4166 27.4999C50.4166 25.9634 50.2585 24.4635 49.9709 23.0117Z" fill="#FFC107"/>
<path d="M7.22461 16.8334L14.7539 22.3551C16.7912 17.3112 21.7251 13.7499 27.499 13.7499C31.0041 13.7499 34.1929 15.0722 36.621 17.2321L43.1029 10.7501C39.01 6.93565 33.5352 4.58325 27.499 4.58325C18.6967 4.58325 11.0632 9.55273 7.22461 16.8334Z" fill="#FF3D00"/>
<path d="M27.5004 50.417C33.4198 50.417 38.7984 48.1516 42.8649 44.4678L35.7722 38.4659C33.3945 40.2753 30.4883 41.2535 27.5004 41.2503C21.5398 41.2503 16.4787 37.4496 14.572 32.1455L7.09888 37.9033C10.8916 45.3249 18.5939 50.417 27.5004 50.417Z" fill="#4CAF50"/>
<path d="M49.9709 23.0119H48.125V22.9167H27.5V32.0834H40.4514C39.5475 34.6231 37.9195 36.8423 35.7683 38.4669L35.7718 38.4646L42.8645 44.4664C42.3626 44.9225 50.4167 38.9584 50.4167 27.5001C50.4167 25.9635 50.2585 24.4636 49.9709 23.0119Z" fill="#1976D2"/>
</svg>
